<svg xmlns="http://www.w3.org/2000/svg" width="169" height="260" viewBox="0 0 169 260" fill="none">
  <path opacity="0.1" fill-rule="evenodd" clip-rule="evenodd" d="M42.6616 -2.40059L38.0146 2.00186H33.3538V6.39042L28.7065 10.7927L24.0594 6.39042V2.00186H19.4121L14.7651 -2.40059H42.6616ZM10.1177 28.3749H5.45692V32.7772L0.80957 37.1657V10.7929L5.45692 15.1953V19.5839H10.1177L14.7651 23.9862L10.1177 28.3749ZM24.0595 59.1502V54.7479H19.4121L14.7651 50.3592L19.4121 45.9569H24.0595V41.5684L28.7065 37.1659L33.3538 41.5684V45.9569H38.0146L42.6616 50.3592L38.0146 54.7479H33.3538V59.1502L28.7065 63.5526L24.0595 59.1502ZM10.1177 81.1347H5.45692V85.5233L0.809683 89.9256L4.893 93.7929H10.6813V99.2512L14.7651 103.119L10.6813 106.972V112.431H4.893L0.80957 116.298V89.9257V89.9255V63.5529L5.45692 67.9414V72.3437H10.1177L14.7651 76.7324L10.1177 81.1347ZM24.0595 107.507V111.91L28.7065 116.298L33.3538 111.91V107.507H38.0146L42.6616 103.119L38.0146 98.7163H33.3538V94.3141L28.7066 89.9256L32.7899 86.0582H38.5645V80.5998L42.6616 76.7324L38.5645 72.8786V67.4065H32.7899L28.7065 63.5529L24.6231 67.4065H18.8485V72.8786L14.7651 76.7324L18.8485 80.5998V86.0582H24.6231L28.7064 89.9256L24.0595 94.3141V98.7163H19.4121L14.7651 103.119L19.4121 107.507H24.0595ZM18.8485 125.624V120.166H24.6231L28.7065 116.299L32.7899 120.166H38.5645V125.624L42.6616 129.492L38.5645 133.359V138.818H32.7899L28.7069 142.685L33.3538 147.073V151.475H38.0146L42.6616 155.864L38.0146 160.266H33.3538V164.655L28.7065 169.057L24.0595 164.655V160.266H19.4121L14.7651 155.864L19.4121 151.475H24.0595V147.073L28.7061 142.685L24.6231 138.818H18.8485V133.359L14.7651 129.492L18.8485 125.624ZM51.9561 133.894V138.283L56.6031 142.685L52.52 146.538H46.7455V152.01L42.6617 155.864L46.7455 159.731V165.19H52.52L56.6035 169.057L60.6869 165.19H66.4614V159.731L70.5585 155.864L75.2059 160.266H79.8529V164.655L84.5002 169.057L89.1473 164.655V160.266H93.7946L98.4554 155.864L93.8084 151.475H89.1473V147.073L84.5007 142.685L88.5837 138.818H94.3582V133.359L98.4554 129.492L94.3582 125.624V120.166H88.5837L84.5002 116.299L80.4168 120.166H74.6419V125.624L70.5586 129.492L65.9116 125.09H61.2505V120.701L56.6035 116.299L51.9561 120.701V125.09H47.3091L42.6617 129.492L47.3091 133.894H51.9561ZM70.5586 129.492L74.6419 133.359V138.818H80.4168L84.4998 142.685L79.8529 147.073V151.475H75.2059L70.5585 155.864L66.4614 152.01V146.538H60.6869L56.6039 142.685L61.2505 138.283V133.894H65.8978L70.5586 129.492ZM74.6419 172.925V178.384L70.5585 182.251L65.9116 177.849H61.2505V173.446L56.6035 169.058L51.9561 173.446V177.849H47.3091L42.6617 182.251L47.3091 186.64H51.9561V191.042L56.6035 195.431L61.2505 191.042V186.64H65.8978L70.5585 182.251L74.6419 186.105V191.563H80.4168L84.5002 195.431L88.5837 191.563H94.3582V186.105L98.4554 182.251L94.3582 178.384V172.925H88.5837L84.5002 169.058L80.4168 172.925H74.6419ZM18.8485 178.384V172.925H24.6231L28.7065 169.058L32.7899 172.925H38.5645V178.384L42.6616 182.251L38.5645 186.105V191.563H32.7899L28.7065 195.431L24.6231 191.563H18.8485V186.105L14.7651 182.251L18.8485 178.384ZM5.45692 133.894H10.1177L14.7651 129.492L10.1177 125.09H5.45692V120.701L0.80957 116.299V142.684V142.685V169.057L4.893 165.19H10.6813V159.731L14.7651 155.864L10.6813 152.01V146.538H4.893L0.809982 142.685L5.45692 138.283V133.894ZM107.75 186.64V191.042L112.397 195.431L117.044 191.042V186.64H121.692L126.352 182.251L130.436 186.105V191.563H136.21L140.294 195.431L144.377 191.563H150.152V186.105L154.235 182.251L150.152 178.384V172.925H144.377L140.294 169.058L136.21 172.925H130.436V178.384L126.352 182.251L121.692 177.849H117.044V173.446L112.397 169.058L107.75 173.446V177.849H103.103L98.4555 182.251L103.103 186.64H107.75ZM10.1177 186.64H5.45692V191.042L0.80957 195.431V169.058L5.45692 173.446V177.849H10.1177L14.7651 182.251L10.1177 186.64ZM89.1473 107.507H93.7946L98.4554 103.119L93.8084 98.7163H89.1473V94.3141L84.5004 89.9256L88.5837 86.0582H94.3582V80.5998L98.4554 76.7324L94.3582 72.8786V67.4065H88.5837L84.5002 63.5529L80.4168 67.4065H74.6419V72.8786L70.5585 76.7324L65.9116 72.3437H61.2505V67.9414L56.6035 63.5529L51.9561 67.9414V72.3437H47.3091L42.6617 76.7324L47.3091 81.1347H51.9561V85.5233L56.6034 89.9256L52.52 93.7929H46.7455V99.2512L42.6617 103.105L46.7455 106.972V112.431H52.52L56.6035 116.298L60.6869 112.431H66.4614V106.972L70.5586 103.119L75.2059 107.507H79.8529V111.91L84.5002 116.298L89.1473 111.91V107.507ZM70.5586 103.119L66.4614 99.2512V93.7929H60.6869L56.6036 89.9256L61.2505 85.5233V81.1347H65.8978L70.5585 76.7324L74.6419 80.5998V86.0582H80.4168L84.5001 89.9256L79.8529 94.3141V98.7163H75.2059L70.5586 103.119ZM121.692 133.894H117.044V138.283L112.398 142.685L116.481 146.538H122.255V152.01L126.352 155.864L122.255 159.731V165.19H116.481L112.397 169.057L108.313 165.19H102.539V159.731L98.4555 155.864L102.539 152.01V146.538H108.313L112.397 142.685L107.75 138.283V133.894H103.103L98.4555 129.492L103.103 125.09H107.75V120.701L112.397 116.299L117.044 120.701V125.09H121.692L126.352 129.492L121.692 133.894ZM126.352 129.492L130.436 125.624V120.166H136.21L140.294 116.299L144.377 120.166H150.152V125.624L154.235 129.492L150.152 133.359V138.818H144.377L140.294 142.685L144.941 147.073V151.475H149.588L154.235 155.864L149.588 160.266H144.941V164.655L140.294 169.057L135.647 164.655V160.266H130.999L126.352 155.864L130.999 151.475H135.647V147.073L140.293 142.685L136.21 138.818H130.436V133.359L126.352 129.492ZM117.044 81.1347H121.692L126.352 76.7324L130.436 80.5998V86.0582H136.21L140.294 89.9255L135.647 94.3141V98.7163H130.999L126.352 103.119L122.255 99.2512V93.7929H116.481L112.397 89.9256L117.044 85.5233V81.1347ZM126.352 103.119L130.999 107.507H135.647V111.91L140.294 116.298L144.941 111.91V107.507H149.588L154.235 103.119L149.588 98.7163H144.941V94.3141L140.294 89.9255L144.377 86.0582H150.152V80.5998L154.235 76.7324L150.152 72.8786V67.4065H144.377L140.294 63.5529L136.21 67.4065H130.436V72.8786L126.352 76.7324L121.692 72.3437H117.044V67.9414L112.397 63.5529L107.75 67.9414V72.3437H103.103L98.4555 76.7324L103.103 81.1347H107.75V85.5233L112.397 89.9256L108.313 93.7929H102.539V99.2512L98.4555 103.105L102.539 106.972V112.431H108.313L112.397 116.298L116.481 112.431H122.255V106.972L126.352 103.119ZM122.255 199.517H116.481L112.397 195.65L108.313 199.517H102.539V204.976L98.4555 208.843L102.539 212.71V218.169H108.313L112.397 222.036L116.481 218.169H122.255V212.71L126.352 208.843L130.999 213.245H135.647V217.634L140.294 222.036L144.941 217.634V213.245H149.588L154.235 208.843L149.588 204.454H144.941V200.052L140.294 195.65L135.647 200.052V204.454H130.999L126.352 208.843L122.255 204.976V199.517ZM93.7946 213.245H89.1473V217.634L84.5002 222.036L79.8529 217.634V213.245H75.2059L70.5585 208.843L75.2059 204.454H79.8529V200.052L84.5002 195.65L89.1473 200.052V204.454H93.8084L98.4554 208.843L93.7946 213.245ZM70.5585 208.843L66.4614 212.71V218.169H60.6869L56.6035 222.036L52.52 218.169H46.7455V212.71L42.6617 208.843L46.7455 204.976V199.517H52.52L56.6035 195.65L60.6869 199.517H66.4614V204.976L70.5585 208.843ZM4.893 199.517H10.6813V204.976L14.7651 208.843L10.6813 212.71V218.169H4.893L0.80957 222.036V195.65L4.893 199.517ZM33.3538 213.245H38.0146L42.6616 208.843L38.0146 204.454H33.3538V200.052L28.7065 195.65L24.0595 200.052V204.454H19.4121L14.7651 208.843L19.4121 213.245H24.0595V217.634L28.7065 222.036L33.3538 217.634V213.245ZM10.6813 59.6851V54.2268L14.7651 50.3592L10.6813 46.4918V41.0335H4.893L0.80957 37.1659V63.5526L4.893 59.6851H10.6813ZM89.1473 54.7479H93.7946L98.4554 50.3592L93.8084 45.9569H89.1473V41.5684L84.5002 37.1659L79.8529 41.5684V45.9569H75.2059L70.5586 50.3592L66.4614 46.4918V41.0335H60.6869L56.6035 37.1659L52.52 41.0335H46.7455V46.4918L42.6617 50.3592L46.7455 54.2268V59.6851H52.52L56.6035 63.5526L60.6869 59.6851H66.4614V54.2268L70.5586 50.3592L75.2059 54.7479H79.8529V59.1502L84.5002 63.5526L89.1473 59.1502V54.7479ZM61.2505 28.3749H65.8978L70.5586 23.9862L65.9116 19.5839H61.2505V15.1953L56.6035 10.7929L51.9561 15.1953V19.5839H47.3091L42.6617 23.9862L47.3091 28.3749H51.9561V32.7772L56.6035 37.1657L61.2505 32.7772V28.3749ZM32.7899 14.6604H38.5645V20.1188L42.6616 23.9862L38.5645 27.84V33.312H32.7899L28.7065 37.1657L24.6231 33.312H18.8485V27.84L14.7651 23.9724L18.8485 20.1188V14.6604H24.6231L28.7065 10.7929L32.7899 14.6604ZM94.3582 14.6604H88.5837L84.5002 10.7929L80.4168 14.6604H74.6419V20.1188L70.5585 23.9724L74.6419 27.84V33.312H80.4168L84.5002 37.1657L88.5837 33.312H94.3582V27.84L98.4554 23.9862L94.3582 20.1188V14.6604ZM121.692 28.3749H117.044V32.7772L112.397 37.1657L107.75 32.7772V28.3749H103.103L98.4555 23.9862L103.103 19.5839H107.75V15.1953L112.397 10.7929L117.044 15.1953V19.5839H121.692L126.352 23.9862L121.692 28.3749ZM122.255 41.0335H116.481L112.397 37.1659L108.313 41.0335H102.539V46.4918L98.4555 50.3592L102.539 54.2268V59.6851H108.313L112.397 63.5526L116.481 59.6851H122.255V54.2268L126.352 50.3592L130.999 54.7479H135.647V59.1502L140.294 63.5526L144.941 59.1502V54.7479H149.588L154.235 50.3592L149.588 45.9569H144.941V41.5684L140.294 37.1659L135.647 41.5684V45.9569H130.999L126.352 50.3592L122.255 46.4918V41.0335ZM10.6813 1.46698L14.7651 -2.40059H0.80957V10.7927L4.893 6.9253H10.6813V1.46698ZM98.4554 -2.40059L93.8084 2.00186H89.1473V6.39042L84.5002 10.7927L79.8529 6.39042V2.00186H75.2059L70.5586 -2.40059H98.4554ZM42.6617 -2.40059H70.5586L66.4614 1.46698V6.9253H60.6869L56.6035 10.7927L52.52 6.9253H46.7455V1.46698L42.6617 -2.40059ZM126.352 -2.40059L122.255 1.46698V6.9253H116.481L112.397 10.7927L108.313 6.9253H102.539V1.46698L98.4555 -2.40059H126.352ZM154.235 -2.40059L149.588 2.00186H144.941V6.39042L140.294 10.7927L135.647 6.39042V2.00186H130.999L126.352 -2.40059H154.235ZM154.235 -2.40059H168.191V10.7927L164.107 6.9253H158.333V1.46698L154.235 -2.40059ZM33.3538 257.201V252.812L28.7065 248.41L24.0595 252.812V257.201H19.4121L14.7651 261.603H42.6616L38.0146 257.201H33.3538ZM4.893 252.277H10.6813V257.736L14.7651 261.603H0.80957V248.41L4.893 252.277ZM5.45692 239.618H10.1177L14.7651 235.216L10.1177 230.828H5.45692V226.425L0.80957 222.037V248.409L5.45692 244.021V239.618ZM89.1473 252.812V257.201H93.8084L98.4554 261.603H70.5585L75.2059 257.201H79.8529V252.812L84.5002 248.41L89.1473 252.812ZM66.4614 257.736L70.5585 261.603H42.6617L46.7455 257.736V252.277H52.52L56.6035 248.41L60.6869 252.277H66.4614V257.736ZM32.7899 225.89H38.5645V231.363L42.6616 235.216L38.5645 239.084V244.556H32.7899L28.7065 248.409L24.6231 244.556H18.8485V239.084L14.7651 235.216L18.8485 231.363V225.89H24.6231L28.7065 222.037L32.7899 225.89ZM61.2505 239.618H65.8978L70.5586 235.216L74.6419 239.084V244.556H80.4168L84.5002 248.409L88.5837 244.556H94.3582V239.084L98.4554 235.216L94.3582 231.363V225.89H88.5837L84.5002 222.037L80.4168 225.89H74.6419V231.363L70.5586 235.216L65.9116 230.828H61.2505V226.425L56.6035 222.037L51.9561 226.425V230.828H47.3091L42.6617 235.216L47.3091 239.618H51.9561V244.021L56.6035 248.409L61.2505 244.021V239.618ZM116.481 252.277H122.255V257.736L126.352 261.603H98.4555L102.539 257.736V252.277H108.313L112.397 248.41L116.481 252.277ZM126.352 261.603L130.999 257.201H135.647V252.812L140.294 248.41L144.941 252.812V257.201H149.588L154.235 261.603H126.352ZM121.692 239.618H117.044V244.021L112.397 248.409L107.75 244.021V239.618H103.103L98.4555 235.216L103.103 230.828H107.75V226.425L112.397 222.037L117.044 226.425V230.828H121.692L126.352 235.216L121.692 239.618ZM126.352 235.216L130.436 239.084V244.556H136.21L140.294 248.409L144.377 244.556H150.152V239.084L154.235 235.216L150.152 231.363V225.89H144.377L140.294 222.037L136.21 225.89H130.436V231.363L126.352 235.216ZM163.544 81.1347V85.5233L168.191 89.9255V63.5529L163.544 67.9414V72.3437H158.896L154.236 76.7324L158.896 81.1347H163.544ZM164.107 93.7929L168.191 89.9257V116.298L164.107 112.431H158.333V106.972L154.236 103.105L158.333 99.2512V93.7929H164.107ZM168.191 222.036L164.107 218.169H158.333V212.71L154.236 208.843L158.333 204.976V199.517H164.107L168.191 195.65V222.036ZM163.544 177.849H158.896L154.236 182.251L158.896 186.64H163.544V191.042L168.191 195.431V169.058L163.544 173.446V177.849ZM158.333 146.538V152.01L154.236 155.864L158.333 159.731V165.19H164.107L168.191 169.057V142.685V142.684V116.299L163.544 120.701V125.09H158.896L154.236 129.492L158.896 133.894H163.544V138.283L168.19 142.685L164.107 146.538H158.333ZM163.544 28.3749V32.7772L168.191 37.1657V10.7929L163.544 15.1953V19.5839H158.896L154.236 23.9862L158.896 28.3749H163.544ZM136.21 33.312H130.436V27.84L126.352 23.9724L130.436 20.1188V14.6604H136.21L140.294 10.7929L144.377 14.6604H150.152V20.1188L154.235 23.9862L150.152 27.84V33.312H144.377L140.294 37.1657L136.21 33.312ZM158.333 41.0335V46.4918L154.236 50.3592L158.333 54.2268V59.6851H164.107L168.191 63.5526V37.1659L164.107 41.0335H158.333ZM158.333 257.736V252.277H164.107L168.191 248.41V261.603H154.236L158.333 257.736ZM163.544 230.828H158.896L154.236 235.216L158.896 239.618H163.544V244.021L168.191 248.409V222.037L163.544 226.425V230.828Z" fill="black"/>
</svg>